<?xml version="1.0" encoding="UTF-8"?>
<svg width="700pt" height="700pt" version="1.1" viewBox="0 0 700 700" xmlns="http://www.w3.org/2000/svg">
 <path d="m350 280c32.488 0 63.648-12.906 86.621-35.879s35.879-54.133 35.879-86.621-12.906-63.648-35.879-86.621-54.133-35.879-86.621-35.879-63.648 12.906-86.621 35.879-35.879 54.133-35.879 86.621 12.906 63.648 35.879 86.621 54.133 35.879 86.621 35.879zm0-210c23.207 0 45.461 9.2188 61.871 25.629s25.629 38.664 25.629 61.871-9.2188 45.461-25.629 61.871-38.664 25.629-61.871 25.629-45.461-9.2188-61.871-25.629-25.629-38.664-25.629-61.871 9.2188-45.461 25.629-61.871 38.664-25.629 61.871-25.629zm243.95 431.55-49-134.93c-7.3633-20.262-20.789-37.762-38.445-50.129-17.66-12.367-38.695-19-60.254-18.996h-192.5c-21.559-0.003906-42.594 6.6289-60.254 18.996-17.656 12.367-31.082 29.867-38.445 50.129l-49 134.93c-1.9375 5.3594-1.1445 11.332 2.1289 16 3.2773 4.668 8.6172 7.4453 14.32 7.4492h455c5.7031-0.003906 11.043-2.7812 14.32-7.4492 3.2734-4.668 4.0664-10.641 2.1289-16zm-446.43-11.551 40.602-111.48c4.9102-13.465 13.836-25.102 25.574-33.332 11.734-8.2344 25.715-12.664 40.051-12.691h192.5c14.363-0.007812 28.383 4.4062 40.156 12.641 11.77 8.2305 20.723 19.887 25.645 33.383l40.426 111.48z"/>
</svg>
